<svg xmlns="http://www.w3.org/2000/svg" viewBox="150.3 56 754.8 754.8"><rect x="150.3" y="56" width="754.8" height="754.8" rx="151" fill="#17191e"/><path fill="#f2efe8" d="M207.9 666.9L220 649.5L230.2 636.2L240.9 623.7L252.1 611.8L263.7 600.6L277.3 588.9L291.3 578L305.8 568L322.3 557.9L335.7 550.5L352.9 542.1L370.3 534.7L387.9 528.2L407.4 522.1L425.4 517.4L442.6 513.7L444.1 507.4L446.7 501.3L474.6 449.8L497.6 405L478.1 372.4L460.3 343.9L434.7 357.6L407.8 373.8L383.9 390L362.7 405.9L342.5 422.8L319.9 443.9L300.5 464.6L283.9 484.4L267.3 507L253.6 528.4L241.5 550.5L235.6 562.8L230.1 575.3L221.6 598.4L217.7 611.2L214.4 624L211.7 636.9L209.9 647.6Z"/><path fill="#e8452c" d="M517.2 286.3L478.1 278.9L476.2 278.9L474.8 279.1L473 279.7L470.8 280.9L469.3 282L468.4 283.1L467.3 284.7L466.7 286L466.3 287L466 288.8L465.9 291.4L466.3 293.2L466.8 294.6L467.8 296.4L481.6 317.8L492 334.1L508.7 361.1L521.5 382.5L532 400.6L532.6 401.8L532.9 403.7L532.9 405.1L532.3 406.9L523 425.7L511.7 447.9L502.9 464.7L493.9 481.7L475 516.2L474.2 518.7L473.9 520.5L474 521.9L474.3 523.8L474.8 525.2L475.2 526.2L476.2 527.7L477.2 528.8L478.6 530L480.8 531.3L482.6 531.9L484 532.1L485.9 532.2L487.3 532L525.4 522L544 517.3L562.4 512.9L586.7 507.3L607.2 502.9L608.5 502.7L610.5 503L612.3 503.8L613.3 504.6L628.3 519.2L645.9 536.8L659.2 550.4L672.5 564.2L699.8 593.1L701.3 594.2L703.3 595.2L704.7 595.6L706.9 595.8L708.7 595.7L710.1 595.5L711.9 594.8L713.8 593.7L715.7 592L717 590.2L717.9 588.2L718.4 586L720.6 546.7L721.9 527.6L723.4 508.6L725.6 483.8L727.7 463L727.9 461.7L728.8 459.9L729.6 458.9L731.2 457.7L749.8 448L772 436.7L788.9 428.2L806.2 419.8L842.1 402.8L843.9 401.5L845.4 399.8L846.4 398.2L846.8 397.2L847.4 395.1L847.6 392.9L847.3 390.7L846.5 388.3L845.4 386.4L844.1 385L843 384.1L841.5 383.1L840.4 382.6L804.5 368.7L786.6 361.5L769.1 354.2L746.2 344.5L727 336.1L725.8 335.4L724.4 334.1L723.7 332.9L723.1 331.1L719.5 310.4L715.6 285.8L712.8 267.1L710.2 248L705.2 208.9L704.4 206.5L703.5 204.9L702.6 203.8L701.3 202.5L700.4 201.8L699.1 201.1L697.4 200.4L696 200.1L694.1 199.9L692.7 200L690.9 200.4L688.6 201.4L687 202.4L686 203.4L661 233.9L648.7 248.6L636.4 263.1L620 281.9L606.1 297.5L604.6 298.8L603.4 299.3L602.1 299.7L600.1 299.7L579.4 296.7L554.8 292.8L536.1 289.6Z"/></svg>
